simulation
nRows=67
nColumns=15
endheader
time  TH_x TH_y TH_z SC_y  SC_z  SC_x  AC_y  AC_z  AC_x  GH_y  GH_z  GH_yy  EL_x  PS_y
0.249883  0.000000  0.000000  0.000000  -32.773548  7.697509  35.000000  35.364624  -17.315628  -30.631390  30.234659  17.432340  -17.457721  10.631795  120.678324
0.250117  0.000000  0.000000  0.000000  -32.773548  7.697509  37.500000  34.698056  -18.750866  -32.784196  30.234659  17.432340  -17.457721  10.631795  120.678324
0.250351  0.000000  0.000000  0.000000  -32.773548  7.697509  40.000000  33.968671  -20.161063  -34.973603  30.234659  17.432340  -17.457721  10.631795  120.678324
0.250585  0.000000  0.000000  0.000000  -32.773548  7.697509  42.500000  33.175107  -21.543704  -37.202547  30.234659  17.432340  -17.457721  10.631795  120.678324
0.250819  0.000000  0.000000  0.000000  -32.773548  7.697509  45.000000  32.316011  -22.896167  -39.473895  30.234659  17.432340  -17.457721  10.631795  120.678324
0.251053  0.000000  0.000000  0.000000  -32.773548  7.697509  47.500000  31.390059  -24.215717  -41.790422  30.234659  17.432340  -17.457721  10.631795  120.678324
0.251287  0.000000  0.000000  0.000000  -32.773548  7.697509  50.000000  30.395999  -25.499506  -44.154767  30.234659  17.432340  -17.457721  10.631795  120.678324
0.251521  0.000000  0.000000  0.000000  -16.305372  16.534026  -10.000000  33.253499  11.892162  6.013076  21.112862  20.989294  -20.243714  19.079774  115.033563
0.251755  0.000000  0.000000  0.000000  -16.305372  16.534026  -7.500000  33.666649  10.513611  3.886934  21.112862  20.989294  -20.243714  19.079774  115.033563
0.251989  0.000000  0.000000  0.000000  -16.305372  16.534026  -5.000000  34.025998  9.121033  1.779790  21.112862  20.989294  -20.243714  19.079774  115.033563
0.252223  0.000000  0.000000  0.000000  -16.305372  16.534026  -2.500000  34.332149  7.716420  -0.310902  21.112862  20.989294  -20.243714  19.079774  115.033563
0.252457  0.000000  0.000000  0.000000  -16.305372  16.534026  0.000000  34.585617  6.301730  -2.387704  21.112862  20.989294  -20.243714  19.079774  115.033563
0.252691  0.000000  0.000000  0.000000  -16.305372  16.534026  2.500000  34.786861  4.878869  -4.453178  21.112862  20.989294  -20.243714  19.079774  115.033563
0.252925  0.000000  0.000000  0.000000  -16.305372  16.534026  5.000000  34.936240  3.449727  -6.509894  21.112862  20.989294  -20.243714  19.079774  115.033563
0.253159  0.000000  0.000000  0.000000  -16.305372  16.534026  7.500000  35.034030  2.016167  -8.560425  21.112862  20.989294  -20.243714  19.079774  115.033563
0.253393  0.000000  0.000000  0.000000  -16.305372  16.534026  10.000000  35.080409  0.580026  -10.607344  21.112862  20.989294  -20.243714  19.079774  115.033563
0.253627  0.000000  0.000000  0.000000  -16.305372  16.534026  12.500000  35.075467  -0.856859  -12.653226  21.112862  20.989294  -20.243714  19.079774  115.033563
0.253861  0.000000  0.000000  0.000000  -16.305372  16.534026  15.000000  35.019191  -2.292636  -14.700639  21.112862  20.989294  -20.243714  19.079774  115.033563
0.254095  0.000000  0.000000  0.000000  -16.305372  16.534026  17.500000  34.911476  -3.725490  -16.752158  21.112862  20.989294  -20.243714  19.079774  115.033563
0.254328  0.000000  0.000000  0.000000  -16.305372  16.534026  20.000000  34.752130  -5.153568  -18.810366  21.112862  20.989294  -20.243714  19.079774  115.033563
0.254562  0.000000  0.000000  0.000000  -16.305372  16.534026  22.500000  34.540854  -6.575002  -20.877821  21.112862  20.989294  -20.243714  19.079774  115.033563
0.254796  0.000000  0.000000  0.000000  -16.305372  16.534026  25.000000  34.277256  -7.987895  -22.957098  21.112862  20.989294  -20.243714  19.079774  115.033563
0.255030  0.000000  0.000000  0.000000  -16.305372  16.534026  27.500000  33.960916  -9.390347  -25.050763  21.112862  20.989294  -20.243714  19.079774  115.033563
0.255264  0.000000  0.000000  0.000000  -16.305372  16.534026  30.000000  33.591251  -10.780377  -27.161369  21.112862  20.989294  -20.243714  19.079774  115.033563
0.255498  0.000000  0.000000  0.000000  -16.305372  16.534026  32.500000  33.167659  -12.155994  -29.291465  21.112862  20.989294  -20.243714  19.079774  115.033563
0.255732  0.000000  0.000000  0.000000  -16.305372  16.534026  35.000000  32.689472  -13.515142  -31.443575  21.112862  20.989294  -20.243714  19.079774  115.033563
0.255966  0.000000  0.000000  0.000000  -16.305372  16.534026  37.500000  32.155974  -14.855723  -33.620201  21.112862  20.989294  -20.243714  19.079774  115.033563
0.256200  0.000000  0.000000  0.000000  -16.305372  16.534026  40.000000  31.566412  -16.175541  -35.823778  21.112862  20.989294  -20.243714  19.079774  115.033563
0.256434  0.000000  0.000000  0.000000  -16.305372  16.534026  42.500000  30.919991  -17.472392  -38.056760  21.112862  20.989294  -20.243714  19.079774  115.033563
0.256668  0.000000  0.000000  0.000000  -16.305372  16.534026  45.000000  30.215968  -18.743961  -40.321458  21.112862  20.989294  -20.243714  19.079774  115.033563
0.256902  0.000000  0.000000  0.000000  -16.305372  16.534026  47.500000  29.453582  -19.987884  -42.620153  21.112862  20.989294  -20.243714  19.079774  115.033563
0.257136  0.000000  0.000000  0.000000  -16.305372  16.534026  50.000000  28.632140  -21.201720  -44.954992  21.112862  20.989294  -20.243714  19.079774  115.033563
0.257370  0.000000  0.000000  0.000000  -34.212200  5.101251  -10.000000  43.077310  35.608434  19.787311  16.790104  24.523359  -16.583753  10.209934  121.057338
0.257604  0.000000  0.000000  0.000000  -34.212200  5.101251  -7.500000  44.331047  33.880849  17.587896  16.790104  24.523359  -16.583753  10.209934  121.057338
0.257838  0.000000  0.000000  0.000000  -34.212200  5.101251  -5.000000  45.481057  32.115754  15.476710  16.790104  24.523359  -16.583753  10.209934  121.057338
0.258072  0.000000  0.000000  0.000000  -34.212200  5.101251  -2.500000  46.533527  30.316973  13.446384  16.790104  24.523359  -16.583753  10.209934  121.057338
0.258306  0.000000  0.000000  0.000000  -34.212200  5.101251  0.000000  47.494254  28.487973  11.489868  16.790104  24.523359  -16.583753  10.209934  121.057338
0.258540  0.000000  0.000000  0.000000  -34.212200  5.101251  2.500000  48.368605  26.631929  9.600483  16.790104  24.523359  -16.583753  10.209934  121.057338
0.258774  0.000000  0.000000  0.000000  -34.212200  5.101251  5.000000  49.161514  24.751723  7.771899  16.790104  24.523359  -16.583753  10.209934  121.057338
0.259008  0.000000  0.000000  0.000000  -34.212200  5.101251  7.500000  49.877476  22.849994  5.998141  16.790104  24.523359  -16.583753  10.209934  121.057338
0.259242  0.000000  0.000000  0.000000  -34.212200  5.101251  10.000000  50.520561  20.929163  4.273572  16.790104  24.523359  -16.583753  10.209934  121.057338
0.259476  0.000000  0.000000  0.000000  -34.212200  5.101251  12.500000  51.094426  18.991437  2.592847  16.790104  24.523359  -16.583753  10.209934  121.057338
0.259710  0.000000  0.000000  0.000000  -34.212200  5.101251  15.000000  51.602314  17.038902  0.950965  16.790104  24.523359  -16.583753  10.209934  121.057338
0.259944  0.000000  0.000000  0.000000  -34.212200  5.101251  17.500000  52.047096  15.073459  -0.656856  16.790104  24.523359  -16.583753  10.209934  121.057338
0.260178  0.000000  0.000000  0.000000  -34.212200  5.101251  20.000000  52.431277  13.096896  -2.235150  16.790104  24.523359  -16.583753  10.209934  121.057338
0.260412  0.000000  0.000000  0.000000  -34.212200  5.101251  22.500000  52.757006  11.110890  -3.788246  16.790104  24.523359  -16.583753  10.209934  121.057338
0.260646  0.000000  0.000000  0.000000  -34.212200  5.101251  25.000000  53.026098  9.117035  -5.320300  16.790104  24.523359  -16.583753  10.209934  121.057338
0.260880  0.000000  0.000000  0.000000  -34.212200  5.101251  27.500000  53.240046  7.116840  -6.835295  16.790104  24.523359  -16.583753  10.209934  121.057338
0.261114  0.000000  0.000000  0.000000  -34.212200  5.101251  30.000000  53.400050  5.111760  -8.337119  16.790104  24.523359  -16.583753  10.209934  121.057338
0.261348  0.000000  0.000000  0.000000  -34.212200  5.101251  32.500000  53.506973  3.103211  -9.829564  16.790104  24.523359  -16.583753  10.209934  121.057338
0.261582  0.000000  0.000000  0.000000  -34.212200  5.101251  35.000000  53.561416  1.092568  -11.316340  16.790104  24.523359  -16.583753  10.209934  121.057338
0.261816  0.000000  0.000000  0.000000  -34.212200  5.101251  37.500000  53.563675  -0.918795  -12.801135  16.790104  24.523359  -16.583753  10.209934  121.057338
0.262050  0.000000  0.000000  0.000000  -34.212200  5.101251  40.000000  53.513741  -2.929565  -14.287592  16.790104  24.523359  -16.583753  10.209934  121.057338
0.262284  0.000000  0.000000  0.000000  -34.212200  5.101251  42.500000  53.411367  -4.938350  -15.779401  16.790104  24.523359  -16.583753  10.209934  121.057338
0.262518  0.000000  0.000000  0.000000  -34.212200  5.101251  45.000000  53.255992  -6.943782  -17.280269  16.790104  24.523359  -16.583753  10.209934  121.057338
0.262752  0.000000  0.000000  0.000000  -34.212200  5.101251  47.500000  53.046746  -8.944454  -18.793976  16.790104  24.523359  -16.583753  10.209934  121.057338
0.262985  0.000000  0.000000  0.000000  -34.212200  5.101251  50.000000  52.782478  -10.938914  -20.324391  16.790104  24.523359  -16.583753  10.209934  121.057338
0.263219  0.000000  0.000000  0.000000  -31.112013  6.510267  -10.000000  38.652675  8.965589  5.941878  7.503139  24.424073  -0.048271  24.583745  118.106883
0.263453  0.000000  0.000000  0.000000  -31.112013  6.510267  -7.500000  38.932913  7.399169  3.973354  7.503139  24.424073  -0.048271  24.583745  118.106883
0.263687  0.000000  0.000000  0.000000  -31.112013  6.510267  -5.000000  39.157994  5.824179  2.018796  7.503139  24.424073  -0.048271  24.583745  118.106883
0.263921  0.000000  0.000000  0.000000  -31.112013  6.510267  -2.500000  39.328547  4.242491  0.075194  7.503139  24.424073  -0.048271  24.583745  118.106883
0.264155  0.000000  0.000000  0.000000  -31.112013  6.510267  0.000000  39.445025  2.655959  -1.860450  7.503139  24.424073  -0.048271  24.583745  118.106883
0.264389  0.000000  0.000000  0.000000  -31.112013  6.510267  2.500000  39.507742  1.066408  -3.791124  7.503139  24.424073  -0.048271  24.583745  118.106883
0.264623  0.000000  0.000000  0.000000  -31.112013  6.510267  5.000000  39.516867  -0.524351  -5.719803  7.503139  24.424073  -0.048271  24.583745  118.106883
0.264857  0.000000  0.000000  0.000000  -31.112013  6.510267  7.500000  39.472425  -2.114517  -7.649463  7.503139  24.424073  -0.048271  24.583745  118.106883
0.265091  0.000000  0.000000  0.000000  -31.112013  6.510267  10.000000  39.374295  -3.702281  -9.583078  7.503139  24.424073  -0.048271  24.583745  118.106883
0.265325  0.000000  0.000000  0.000000  -31.112013  6.510267  12.500000  39.222214  -5.285826  -11.523633  7.503139  24.424073  -0.048271  24.583745  118.106883
